<?xml version="1.0" encoding="utf-8"?>
<!-- Generator: Adobe Illustrator 21.0.2, SVG Export Plug-In . SVG Version: 6.00 Build 0)  -->
<svg version="1.1" id="레이어_1" xmlns="http://www.w3.org/2000/svg" xmlns:xlink="http://www.w3.org/1999/xlink" x="0px"
	 y="0px" viewBox="0 0 1280 1280" style="enable-background:new 0 0 1280 1280;" xml:space="preserve">
<style type="text/css">
	.st0{fill:none;stroke:#C52E58;stroke-width:30;stroke-linecap:round;stroke-linejoin:round;stroke-miterlimit:10;}
	.st1{fill:none;stroke:#231815;stroke-width:30;stroke-linecap:round;stroke-linejoin:round;stroke-miterlimit:10;}
	.st2{fill:none;stroke:#C52E58;stroke-width:25;stroke-linecap:round;stroke-linejoin:round;stroke-miterlimit:10;}
	.st3{fill:none;stroke:#C52E58;stroke-width:16;stroke-linecap:round;stroke-linejoin:round;stroke-miterlimit:10;}
</style>
<path class="st0" d="M79.6,559.1c-23.1,6.9-13.2,31.8-1.1,43.1c15.4,14.5,35.8,23.8,55.1,32c25.4,10.8,52.7,16.7,80.1,19.1
	c57.1,5,114.7-4.5,170.1-17.9c97.7-23.7,186.9-75.9,276.1-123.2"/>
<path class="st0" d="M461.4,615c0,24.8,0.6,49.5,0.3,74.3c-0.3,24.2-0.6,48.7-7.3,72.1c-5,17.5-15.1,44.6-37.3,44.3
	c-6.7-0.1-13.2-2.8-18.8-6.3"/>
<path class="st0" d="M385,468.9l83.9-12.1l11.1,76.6c0,0-2.5,20.2-30.2,31.6s-53.5-18.6-53.5-18.6L385,468.9z"/>
<path class="st0" d="M672.2,637.3"/>
<path class="st0" d="M594.1,548.1c0,0,0,81.6,0,81.8c0,16.1,16.6,25.6,30.4,28.9c10,2.4,20.8,2.4,30.2-2.1
	c5.7-2.7,10.7-6.5,15.7-10.3"/>
<path class="st0" d="M710.8,433c0,0,9.7,273.5,0,309.4"/>
<path class="st0" d="M262.3,451c0,0-1.8,38.1-23.2,72.8c-15,24.3-39.7,46.9-80.2,53.3"/>
<path class="st0" d="M328.9,592c0,0-64.3-22.3-89.8-68.2"/>
<path class="st0" d="M792.6,417.8v98.9c0,0,3.1,23.9,33.3,26.4c30.2,2.5,37-25.3,37-25.3V416.7"/>
<line class="st0" x1="828.8" y1="595.9" x2="828.8" y2="560.8"/>
<path class="st0" d="M746.7,595.2c0,0,42.3,8.6,83.9,4.2c41.7-4.4,85.8-25.7,85.8-25.7"/>
<path class="st0" d="M792.2,639.7h84.2l0,47.5c-11.9,0-82.1-5.6-82.5,5.7c-0.9,28.4,0.5,71.8,26.4,90.4
	c22.5,16.1,55.8,0.3,66.9-22.5"/>
<line class="st0" x1="596.2" y1="206.3" x2="596.2" y2="290.9"/>
<path class="st0" d="M498.2,213.4v43.8c0,0,0,7.4,6.7,13.5c8.4,7.6,21.3,13.3,34.2,11.8c10.2-1.2,20.4-4.7,29.9-7.8"/>
<line class="st0" x1="596.2" y1="252.3" x2="630.7" y2="252.3"/>
<path class="st0" d="M512.1,319.9H595v35.8c0,0-80,0-80,0c-1.4,0,0.1,27,0.4,29.4c2,16.7,10.1,37,28,44.7c20,8.7,51.3-1.4,62.3-18.7
	"/>
<path class="st1" d="M881.2,613.1"/>
<path class="st1" d="M887.2,565"/>
<path class="st0" d="M792.6,478.4c19.7-2.6,39.5-4.4,59.2-5.4c49.7-2.5,147.2,4.6,156.9,69.3c2.7,18.2-12.7,38.3-38,23.7"/>
<path class="st0" d="M339,228.2h97.2c0,0,5.9,60.8-9.8,81.4"/>
<line class="st0" x1="313.9" y1="346.7" x2="466.5" y2="346.7"/>
<path class="st0" d="M647.5,355.3c0,0,25.5,8.9,44.5,7.6c19.1-1.3,36.9-14,36.9-14"/>
<line class="st0" x1="732.2" y1="272.5" x2="732.2" y2="402.4"/>
<ellipse class="st0" cx="681" cy="304.4" rx="18.7" ry="23.7"/>
<path class="st2" d="M973.2,652.6c-46.9,192.7-220.7,335.7-427.8,335.7c-187.7,0-348-117.5-411.4-282.9"/>
<path class="st0" d="M985.7,535.1"/>
<path class="st2" d="M106.9,472.2C127.6,248.3,316,73,545.4,73c208,0,382.4,144.3,428.4,338.2"/>
<path class="st0" d="M137.6,917.6"/>
<path class="st3" d="M1254,648.5"/>
<path class="st3" d="M61,713.3"/>
</svg>
